# Blender v2.75 (sub 0) OBJ File: 'Cylindre_1.blend'
# www.blender.org
mtllib Cylindre_1.mtl
o Cylinder
v 0.000000 0.008264 -0.200450
v 0.000000 1.608264 -0.200450
v 0.039106 0.008264 -0.196598
v 0.039106 1.608264 -0.196598
v 0.076709 0.008264 -0.185191
v 0.076709 1.608264 -0.185191
v 0.111364 0.008264 -0.166668
v 0.111364 1.608264 -0.166668
v 0.141739 0.008264 -0.141739
v 0.141739 1.608264 -0.141739
v 0.166668 0.008264 -0.111364
v 0.166668 1.608264 -0.111364
v 0.185191 0.008264 -0.076709
v 0.185191 1.608264 -0.076709
v 0.196598 0.008264 -0.039106
v 0.196598 1.608264 -0.039106
v 0.200450 0.008264 -0.000000
v 0.200450 1.608264 -0.000000
v 0.196598 0.008264 0.039106
v 0.196598 1.608264 0.039106
v 0.185191 0.008264 0.076709
v 0.185191 1.608264 0.076709
v 0.166668 0.008264 0.111364
v 0.166668 1.608264 0.111364
v 0.141739 0.008264 0.141739
v 0.141739 1.608264 0.141739
v 0.111364 0.008264 0.166668
v 0.111364 1.608264 0.166668
v 0.076709 0.008264 0.185191
v 0.076709 1.608264 0.185191
v 0.039106 0.008264 0.196598
v 0.039106 1.608264 0.196598
v -0.000000 0.008264 0.200450
v -0.000000 1.608264 0.200450
v -0.039106 0.008264 0.196598
v -0.039106 1.608264 0.196598
v -0.076709 0.008264 0.185191
v -0.076709 1.608264 0.185191
v -0.111364 0.008264 0.166668
v -0.111364 1.608264 0.166668
v -0.141740 0.008264 0.141739
v -0.141740 1.608264 0.141739
v -0.166668 0.008264 0.111364
v -0.166668 1.608264 0.111364
v -0.185192 0.008264 0.076709
v -0.185192 1.608264 0.076709
v -0.196598 0.008264 0.039106
v -0.196598 1.608264 0.039106
v -0.200450 0.008264 -0.000000
v -0.200450 1.608264 -0.000000
v -0.196598 0.008264 -0.039106
v -0.196598 1.608264 -0.039106
v -0.185191 0.008264 -0.076709
v -0.185191 1.608264 -0.076709
v -0.166668 0.008264 -0.111364
v -0.166668 1.608264 -0.111364
v -0.141739 0.008264 -0.141740
v -0.141739 1.608264 -0.141740
v -0.111364 0.008264 -0.166668
v -0.111364 1.608264 -0.166668
v -0.076709 0.008264 -0.185192
v -0.076709 1.608264 -0.185192
v -0.039106 0.008264 -0.196598
v -0.039106 1.608264 -0.196598
v 0.000000 1.608264 -0.200450
v 0.039106 1.608264 -0.196598
v 0.076709 1.608264 -0.185191
v 0.111364 1.608264 -0.166668
v 0.141739 1.608264 -0.141739
v 0.166668 1.608264 -0.111364
v 0.185191 1.608264 -0.076709
v 0.196598 1.608264 -0.039106
v 0.200450 1.608264 -0.000000
v 0.196598 1.608264 0.039106
v 0.185191 1.608264 0.076709
v 0.166668 1.608264 0.111364
v 0.141739 1.608264 0.141739
v 0.111364 1.608264 0.166668
v 0.076709 1.608264 0.185191
v 0.039106 1.608264 0.196598
v -0.000000 1.608264 0.200450
v -0.039106 1.608264 0.196598
v -0.076709 1.608264 0.185191
v -0.111364 1.608264 0.166668
v -0.141740 1.608264 0.141739
v -0.166668 1.608264 0.111364
v -0.185192 1.608264 0.076709
v -0.196598 1.608264 0.039106
v -0.200450 1.608264 -0.000000
v -0.196598 1.608264 -0.039106
v -0.185191 1.608264 -0.076709
v -0.166668 1.608264 -0.111364
v -0.141739 1.608264 -0.141740
v -0.111364 1.608264 -0.166668
v -0.076709 1.608264 -0.185192
v -0.039106 1.608264 -0.196598
v 0.000000 1.608264 -0.000000
v 0.000000 0.008264 -0.000000
vn 0.098000 0.000000 -0.995200
vn 0.290300 0.000000 -0.956900
vn 0.471400 0.000000 -0.881900
vn 0.634400 0.000000 -0.773000
vn 0.773000 0.000000 -0.634400
vn 0.881900 0.000000 -0.471400
vn 0.956900 0.000000 -0.290300
vn 0.995200 0.000000 -0.098000
vn 0.995200 0.000000 0.098000
vn 0.956900 0.000000 0.290300
vn 0.881900 0.000000 0.471400
vn 0.773000 0.000000 0.634400
vn 0.634400 0.000000 0.773000
vn 0.471400 0.000000 0.881900
vn 0.290300 0.000000 0.956900
vn 0.098000 0.000000 0.995200
vn -0.098000 0.000000 0.995200
vn -0.290300 0.000000 0.956900
vn -0.471400 0.000000 0.881900
vn -0.634400 0.000000 0.773000
vn -0.773000 0.000000 0.634400
vn -0.881900 0.000000 0.471400
vn -0.956900 0.000000 0.290300
vn -0.995200 0.000000 0.098000
vn -0.995200 0.000000 -0.098000
vn -0.956900 0.000000 -0.290300
vn -0.881900 0.000000 -0.471400
vn -0.773000 0.000000 -0.634400
vn -0.634400 0.000000 -0.773000
vn -0.471400 0.000000 -0.881900
vn 0.000000 -1.000000 0.000000
vn -0.098000 0.000000 -0.995200
vn -0.290300 0.000000 -0.956900
vn 0.000000 1.000000 0.000000
usemtl None
s off
f 1//1 2//1 4//1 3//1
f 3//2 4//2 6//2 5//2
f 5//3 6//3 8//3 7//3
f 7//4 8//4 10//4 9//4
f 9//5 10//5 12//5 11//5
f 11//6 12//6 14//6 13//6
f 13//7 14//7 16//7 15//7
f 15//8 16//8 18//8 17//8
f 17//9 18//9 20//9 19//9
f 19//10 20//10 22//10 21//10
f 21//11 22//11 24//11 23//11
f 23//12 24//12 26//12 25//12
f 25//13 26//13 28//13 27//13
f 27//14 28//14 30//14 29//14
f 29//15 30//15 32//15 31//15
f 31//16 32//16 34//16 33//16
f 33//17 34//17 36//17 35//17
f 35//18 36//18 38//18 37//18
f 37//19 38//19 40//19 39//19
f 39//20 40//20 42//20 41//20
f 41//21 42//21 44//21 43//21
f 43//22 44//22 46//22 45//22
f 45//23 46//23 48//23 47//23
f 47//24 48//24 50//24 49//24
f 49//25 50//25 52//25 51//25
f 51//26 52//26 54//26 53//26
f 53//27 54//27 56//27 55//27
f 55//28 56//28 58//28 57//28
f 57//29 58//29 60//29 59//29
f 59//30 60//30 62//30 61//30
f 53//31 55//31 98//31
f 63//32 64//32 2//32 1//32
f 61//33 62//33 64//33 63//33
f 20//34 18//34 97//34
f 38//34 36//34 97//34
f 56//34 54//34 97//34
f 12//34 10//34 97//34
f 30//34 28//34 97//34
f 48//34 46//34 97//34
f 4//34 2//34 97//34
f 2//34 64//34 97//34
f 22//34 20//34 97//34
f 40//34 38//34 97//34
f 58//34 56//34 97//34
f 14//34 12//34 97//34
f 32//34 30//34 97//34
f 50//34 48//34 97//34
f 6//34 4//34 97//34
f 24//34 22//34 97//34
f 42//34 40//34 97//34
f 60//34 58//34 97//34
f 16//34 14//34 97//34
f 34//34 32//34 97//34
f 52//34 50//34 97//34
f 8//34 6//34 97//34
f 26//34 24//34 97//34
f 44//34 42//34 97//34
f 62//34 60//34 97//34
f 18//34 16//34 97//34
f 36//34 34//34 97//34
f 54//34 52//34 97//34
f 10//34 8//34 97//34
f 28//34 26//34 97//34
f 46//34 44//34 97//34
f 64//34 62//34 97//34
f 35//31 37//31 98//31
f 17//31 19//31 98//31
f 61//31 63//31 98//31
f 43//31 45//31 98//31
f 25//31 27//31 98//31
f 7//31 9//31 98//31
f 51//31 53//31 98//31
f 33//31 35//31 98//31
f 15//31 17//31 98//31
f 59//31 61//31 98//31
f 41//31 43//31 98//31
f 23//31 25//31 98//31
f 5//31 7//31 98//31
f 49//31 51//31 98//31
f 31//31 33//31 98//31
f 13//31 15//31 98//31
f 57//31 59//31 98//31
f 39//31 41//31 98//31
f 21//31 23//31 98//31
f 3//31 5//31 98//31
f 47//31 49//31 98//31
f 29//31 31//31 98//31
f 11//31 13//31 98//31
f 55//31 57//31 98//31
f 37//31 39//31 98//31
f 19//31 21//31 98//31
f 63//31 1//31 98//31
f 1//31 3//31 98//31
f 45//31 47//31 98//31
f 27//31 29//31 98//31
f 9//31 11//31 98//31
l 2 65
l 4 66
l 6 67
l 8 68
l 10 69
l 12 70
l 14 71
l 16 72
l 18 73
l 20 74
l 22 75
l 24 76
l 26 77
l 28 78
l 30 79
l 32 80
l 34 81
l 36 82
l 38 83
l 40 84
l 42 85
l 44 86
l 46 87
l 48 88
l 50 89
l 52 90
l 54 91
l 56 92
l 58 93
l 60 94
l 62 95
l 64 96
