# Blender v2.75 (sub 0) OBJ File: 'Mur_1.blend'
# www.blender.org
mtllib Mur_1.mtl
o Cube_Cube.001
v -0.025000 0.016910 0.100000
v -0.025000 1.616910 0.100000
v -0.025000 0.016910 -0.100000
v -0.025000 1.616910 -0.100000
v 0.025000 0.016910 0.100000
v 0.025000 1.616910 0.100000
v 0.025000 0.016910 -0.100000
v 0.025000 1.616910 -0.100000
v -0.025000 1.616910 0.100000
v -0.025000 1.616910 -0.100000
v 0.025000 1.616910 -0.100000
v 0.025000 1.616910 0.100000
v -0.025000 1.616910 0.100000
v -0.025000 1.616910 -0.100000
v 0.025000 1.616910 -0.100000
v 0.025000 1.616910 0.100000
v 0.000000 1.616910 0.000000
vn -1.000000 0.000000 0.000000
vn 0.000000 0.000000 -1.000000
vn 1.000000 0.000000 0.000000
vn 0.000000 0.000000 1.000000
vn 0.000000 -1.000000 0.000000
vn 0.000000 1.000000 0.000000
usemtl Material.001
s off
f 9//1 10//1 3//1 1//1
f 10//2 11//2 7//2 3//2
f 11//3 12//3 5//3 7//3
f 12//4 9//4 1//4 5//4
f 1//5 3//5 7//5 5//5
f 6//6 8//6 4//6 2//6
f 6//4 2//4 9//4 12//4
f 8//4 6//4 12//4 11//4
f 4//4 8//4 11//4 10//4
f 2//4 4//4 10//4 9//4
f 9//4 10//4 14//4 13//4
f 11//4 12//4 16//4 15//4
f 10//4 11//4 15//4 14//4
f 12//4 9//4 13//4 16//4
f 13//5 14//5 17//5
f 15//5 16//5 17//5
f 14//5 15//5 17//5
f 16//5 13//5 17//5
